# xmcd
#
# Track frame offsets:
#	150
#	19924
#	38898
#	53448
#	70001
#	85027
#	102834
#	121689
#	137785
#	153626
#	171000
#	187615
#
# Disc length: 2767 seconds
#
# Revision: 1
# Processed by: cddbd v1.5.1PL0 Copyright (c) Steve Scherf et al.
# Submitted via: EasyCDDAExtractor 5.0.6
#
DISCID=8a0acd0c
DTITLE=Juanes - Mi Sangre
DYEAR=2004
DGENRE=ballad
TTITLE0=amame
TTITLE1=para tu amor
TTITLE2=sueños
TTITLE3=la camisa negra
TTITLE4=nada valgo sin tu amor
TTITLE5=no siento penas
TTITLE6=damelo
TTITLE7=lo que me gusta a mi
TTITLE8=rosario tijeras
TTITLE9=que pasa
TTITLE10=volverte a ver
TTITLE11=tu guardian
EXTD=
EXTT0=
EXTT1=
EXTT2=
EXTT3=
EXTT4=
EXTT5=
EXTT6=
EXTT7=
EXTT8=
EXTT9=
EXTT10=
EXTT11=
PLAYORDER=
